<svg id="e56hXjdDWFA1" xmlns="http://www.w3.org/2000/svg" xmlns:xlink="http://www.w3.org/1999/xlink" viewBox="0 0 301.209 301.209" shape-rendering="geometricPrecision" text-rendering="geometricPrecision"><path id="e56hXjdDWFA2" d="M93.364,210.856C82.907,210.856,30.156,209.625,18.526,185.287C8.832,165,5.025,134.745,4.376,124.799C4.24,122.716,3.825,121.696,3.621,121.31C1.403,119.971,0,117.55,0,114.891L0,98.318C0,95.005,2.173,92.085,5.347,91.134C5.992,90.941,7.951,90.353,16.338,90.353C20.693,90.353,26.12,90.512,32.468,90.827C43.522,91.375,50.534,93.124,57.958,94.975C65.331,96.814,72.955,98.716,86.061,99.737C100.504,100.863,118.386,101.717,130.843,102.236C143.954,102.782,157.254,102.782,170.365,102.236C182.823,101.717,200.707,100.863,215.147,99.737C228.252,98.716,235.876,96.815,243.251,94.975C250.675,93.123,257.688,91.375,268.74,90.827C275.088,90.512,280.514,90.353,284.87,90.353C293.26,90.353,295.22,90.941,295.864,91.134C299.036,92.086,301.209,95.006,301.209,98.318L301.209,114.891C301.209,117.551,299.806,119.971,297.588,121.31C297.384,121.696,296.968,122.716,296.832,124.799C296.183,134.745,292.376,165,282.682,185.287C271.053,209.622,218.303,210.856,207.847,210.856C203.92,210.856,200.268,210.718,197.284,210.458C174.289,208.449,166.394,187.922,162.153,176.895C161.227,174.488,160.418,172.239,159.634,170.063C157.726,164.765,155.353,158.172,153.473,157.06C152.196,156.305,151.222,156.227,151.036,156.219C150.746,156.236,150.456,156.236,150.166,156.22C149.976,156.228,149.005,156.308,147.734,157.059C145.853,158.171,143.479,164.765,141.572,170.063C140.789,172.238,139.979,174.488,139.053,176.895C134.812,187.922,126.916,208.448,103.922,210.458C100.943,210.718,97.292,210.856,93.364,210.856ZM15,111.497C17.02,113.898,18.949,117.747,19.345,123.824C19.901,132.352,23.431,160.762,32.06,178.82C37.349,189.887,67.592,195.858,93.364,195.857C96.864,195.857,100.064,195.739,102.619,195.516C115.254,194.412,120.255,183.992,125.056,171.512C125.923,169.257,126.705,167.085,127.461,164.984C130.875,155.501,133.572,148.011,140.101,144.151C144.773,141.387,148.97,141.175,150.64,141.228C150.762,141.223,150.884,141.221,151.009,141.221C152.932,141.221,156.8,141.601,161.111,144.152C167.638,148.012,170.336,155.502,173.749,164.984C174.506,167.085,175.288,169.257,176.155,171.512C180.955,183.992,185.957,194.412,198.592,195.516C201.149,195.74,204.35,195.858,207.848,195.858C233.619,195.858,263.863,189.886,269.151,178.821C277.78,160.763,281.31,132.353,281.866,123.824C282.262,117.748,284.192,113.899,286.212,111.498L286.212,105.361C285.793,105.357,285.348,105.355,284.873,105.355C280.765,105.355,275.588,105.508,269.485,105.811C259.897,106.287,253.867,107.79,246.883,109.532C239.283,111.428,230.669,113.576,216.316,114.695C201.651,115.838,183.574,116.702,170.991,117.226C157.467,117.789,143.746,117.789,130.221,117.226C117.64,116.702,99.564,115.838,84.897,114.695C70.543,113.576,61.93,111.428,54.331,109.532C47.348,107.79,41.317,106.286,31.728,105.811C25.625,105.509,20.449,105.355,16.34,105.355C15.866,105.355,15.421,105.357,15.002,105.361L15.002,111.497Z" transform="matrix(1 0 0 1 0 6.401892)" fill="rgb(255,255,255)" stroke="none" stroke-width="1"/></svg>